<svg xmlns="http://www.w3.org/2000/svg" viewBox="39.7 45 121.3 119.8"><path fill="none" d="M0 0h201v209H0z"/><title>background</title><path fill="none" d="M-1-1h203v211H-1z"/><title>Layer 1</title><path d="M117.3 115.8c-2-2-5.2-2-7.2.1-2 2-1.9 5.3.1 7.3l40.2 39.6c1 1 2.3 1.5 3.6 1.5 1.3 0 2.6-.5 3.6-1.5 2-2 1.9-5.3-.1-7.3l-40.2-39.7zM81.2 93.2c1 1 2.3 1.5 3.6 1.5s2.6-.5 3.6-1.5c2-2 2-5.3 0-7.3L50 47.1c-2-2-5.2-2-7.2 0s-2 5.3 0 7.3c-.1 0 38.4 38.8 38.4 38.8zm77.4-46.1c-2-2-5.2-2-7.2 0L43.7 155.5c-2 2-2 5.3 0 7.3 1 1 2.3 1.5 3.6 1.5s2.6-.5 3.6-1.5L158.6 54.4c1.9-2 1.9-5.2 0-7.3z" fill="#FFF"/></svg>